PathFileType	4	(x/y/z)	S02_PSF_T05
DataRate	CameraRate	NumFrames	NumMarkers	Units	OrigDataRate	OrigDataStartFrame	OrigNumFrames
240	240	6	51	mm	240	103	410
Frame#	Time	Sternum			R.Acromium			L.Acromium			Top.Head			R.ASIS			L.ASIS			R.PSIS			L.PSIS			R.Great.Tro			L.Great.Tro			R.Iliac.Crest			L.Iliac.Crest			V.Sacral			R.Thigh.Upper.Post			R.Thigh.Lower.Ant			R.Thigh.Lower.Post			R.Thigh.Upper.Ant			R.Knee.Lat			R.Knee.Med			R.Shank.Upper.Post			R.Shank.Lower.Ant			R.Shank.Lower.Post			R.Shank.Upper.Ant			R.Ankle.Lat			R.Ankle.Med			R.Heel.Upper			R.Heel.Med			R.Heel.Lat			R.Toe.Lat			R.Toe.Med			R.Toe.Tip			L.Thigh.Upper.Post			L.Thigh.Lower.Ant			L.Thigh.Lower.Post			L.Thigh.Upper.Ant			L.Knee.Lat			L.Knee.Med			L.Shank.Upper.Post			L.Shank.Lower.Ant			L.Shank.Lower.Post			L.Shank.Upper.Ant			L.Ankle.Lat			L.Ankle.Med			L.Heel.Upper			L.Heel.Med			L.Heel.Lat			L.Toe.Lat			L.Toe.Med			L.Toe.Tip			Cervical.Spine			Back			
		X1	Y1	Z1	X2	Y2	Z2	X3	Y3	Z3	X4	Y4	Z4	X5	Y5	Z5	X6	Y6	Z6	X7	Y7	Z7	X8	Y8	Z8	X9	Y9	Z9	X10	Y10	Z10	X11	Y11	Z11	X12	Y12	Z12	X13	Y13	Z13	X14	Y14	Z14	X15	Y15	Z15	X16	Y16	Z16	X17	Y17	Z17	X18	Y18	Z18	X19	Y19	Z19	X20	Y20	Z20	X21	Y21	Z21	X22	Y22	Z22	X23	Y23	Z23	X24	Y24	Z24	X25	Y25	Z25	X26	Y26	Z26	X27	Y27	Z27	X28	Y28	Z28	X29	Y29	Z29	X30	Y30	Z30	X31	Y31	Z31	X32	Y32	Z32	X33	Y33	Z33	X34	Y34	Z34	X35	Y35	Z35	X36	Y36	Z36	X37	Y37	Z37	X38	Y38	Z38	X39	Y39	Z39	X40	Y40	Z40	X41	Y41	Z41	X42	Y42	Z42	X43	Y43	Z43	X44	Y44	Z44	X45	Y45	Z45	X46	Y46	Z46	X47	Y47	Z47	X48	Y48	Z48	X49	Y49	Z49	X50	Y50	Z50	X51	Y51	Z51	

103	0.425	-944.55	1109.3	351.34	-1054.8	1349	485.01	-1040.4	1345.7	192.29	-1000.5	1632.1	328.25	-977.19	950.23	449.94	-972.68	935.04	240.6	NaN	NaN	NaN	NaN	NaN	NaN	-1037.7	830.28	546.69	-1103.3	833.89	160.75	-1080.1	987.76	509.05	-1095.8	981.67	177.76	-1221.3	937.63	357.88	-949.82	641.28	543.79	-866.33	590.36	512.25	-929.09	555.16	526.72	-891.73	675.79	526.87	-889.39	488.31	513.06	-879.23	477.01	371.43	-1005.8	304.11	490.71	-946.64	210.56	482	-1013.8	231.13	482.44	-937.47	277.68	497.59	-1014.6	137.74	473.13	-991.48	151.39	390.29	-1069.8	134.27	409.21	-1058.3	102.06	381.08	-1078.9	101.93	442.21	-932.04	57.762	505.11	-885.38	50.246	404.57	-843.46	65.573	467.72	-1146.7	613.27	201.28	-1075.4	528.43	206.91	-1152.9	525.84	227.16	-1077.1	620.85	182.1	-1098.8	449.87	223.66	-1097.9	454.97	363.62	-1199.7	292.83	232.01	-1144.6	197.62	252.94	-1209.1	222.94	247.52	-1140.4	271.32	233.62	-1205.3	104.03	272.24	-1194.6	101.42	352.95	-1266.1	72.03	306.22	-1258.6	45.582	338.71	-1260.3	45.111	276.95	-1094.7	35.305	248.24	-1074	44.07	358.45	-1012.7	57.705	311.58	-1121	1409	335.89	-1207.1	1160.7	341.64
104	0.42917	-939.34	1109.1	351.27	-1049.7	1348.6	485.2	-1034.8	1345.7	192.42	-995.1	1631.8	328.83	-971.72	950.14	449.68	-967.8	934.6	240.4	NaN	NaN	NaN	NaN	NaN	NaN	-1031.5	830.68	546.86	-1099.1	833.7	160.81	-1074.8	987.75	508.98	-1091.1	981.3	177.93	-1216.1	937.25	358.45	-943.56	641.4	543.29	-860.23	590.63	511.07	-922.85	555.3	526.01	-885.64	676.02	525.96	-883	488.65	512.06	-873.78	477.28	370.48	-994.48	301.05	490.22	-932.71	209.23	481.74	-1000	227.87	481.92	-925.38	276.74	497.06	-998.04	134.37	472.85	-975.38	148.58	390.04	-1053	129.08	408.94	-1040.6	97.17	380.95	-1061.2	96.611	442.03	-913.08	57.138	505.18	-866.24	50.696	404.64	-824.85	67.447	467.78	-1144.3	613.73	201.54	-1073.7	528.31	206.89	-1151.2	526.34	227.31	-1074.7	620.75	182.19	-1097.7	449.86	223.63	-1096.5	454.8	363.61	-1199	293.24	232.04	-1144.2	197.79	253.02	-1209	223.19	247.99	-1139.9	271.48	233.67	-1205.1	104.25	272.36	-1194.2	101.46	353.05	-1266	72.268	306.35	-1258.5	45.778	338.81	-1260.3	45.386	277.05	-1094.7	35.302	248.26	-1074	44.007	358.5	-1012.6	57.594	311.57	-1115.6	1408.8	335.98	-1201.8	1160.5	341.39
105	0.43333	-934.12	1108.9	351.22	-1044.5	1348.1	485.4	-1029.2	1345.6	192.57	-989.75	1631.5	329.42	-966.23	949.97	449.43	-962.9	934.07	240.22	NaN	NaN	NaN	NaN	NaN	NaN	-1025.3	830.98	547.02	-1094.9	833.5	160.86	-1069.4	987.66	508.91	-1086.4	980.88	178.12	-1210.7	936.81	359.04	-937.37	641.41	542.77	-854.24	590.75	509.89	-916.71	555.31	525.29	-879.62	676.11	525.02	-876.74	488.86	511.07	-868.46	477.39	369.51	-983.13	298.01	489.72	-918.79	208.02	481.47	-986.24	224.72	481.41	-913.35	275.87	496.53	-981.42	131.18	472.57	-959.18	145.93	389.78	-1036.2	124.08	408.65	-1022.7	92.51	380.79	-1043.4	91.503	441.83	-894.14	56.744	505.22	-847.16	51.408	404.67	-806.34	69.554	467.8	-1141.9	614.19	201.77	-1072	528.19	206.87	-1149.5	526.83	227.44	-1072.3	620.64	182.26	-1096.6	449.84	223.59	-1095.1	454.62	363.59	-1198.2	293.65	232.05	-1143.9	197.96	253.1	-1209	223.42	248.51	-1139.3	271.64	233.72	-1204.9	104.48	272.47	-1193.9	101.52	353.14	-1265.8	72.518	306.47	-1258.4	45.99	338.91	-1260.2	45.666	277.14	-1094.7	35.296	248.27	-1074	43.94	358.55	-1012.5	57.475	311.56	-1110.1	1408.5	336.08	-1196.3	1160.2	341.15
106	0.4375	-928.89	1108.6	351.19	-1039.4	1347.6	485.59	-1023.5	1345.4	192.74	-984.39	1631.1	330.03	-960.72	949.7	449.19	-957.98	933.44	240.03	-1173.5	980.72	400.26	NaN	NaN	NaN	-1019.1	831.19	547.18	-1090.7	833.29	160.91	-1064	987.49	508.87	-1081.7	980.39	178.32	-1205.4	936.31	359.63	-931.26	641.31	542.24	-848.36	590.71	508.7	-910.69	555.19	524.56	-873.67	676.05	524.05	-870.6	488.93	510.09	-863.27	477.36	368.53	-971.78	295.03	489.21	-904.91	206.96	481.17	-972.46	221.69	480.92	-901.38	275.07	496	-964.75	128.17	472.26	-942.91	143.45	389.52	-1019.3	119.28	408.34	-1004.8	88.089	380.6	-1025.5	86.619	441.61	-875.26	56.587	505.22	-828.18	52.389	404.67	-787.95	71.897	467.77	-1139.4	614.62	201.96	-1070.2	528.06	206.85	-1147.7	527.31	227.54	-1069.8	620.52	182.32	-1095.4	449.82	223.54	-1093.7	454.44	363.56	-1197.4	294.06	232.05	-1143.6	198.12	253.18	-1209	223.65	249.06	-1138.7	271.79	233.75	-1204.8	104.72	272.58	-1193.6	101.61	353.24	-1265.7	72.78	306.58	-1258.3	46.218	339	-1260.1	45.953	277.22	-1094.6	35.287	248.28	-1074	43.87	358.6	-1012.4	57.346	311.55	-1104.7	1408.1	336.17	-1190.9	1159.8	340.92
107	0.44167	-923.65	1108.2	351.18	-1034.3	1347	485.79	-1017.8	1345.2	192.92	-979.02	1630.6	330.64	-955.2	949.34	448.97	-953.04	932.73	239.85	-1168.7	980.13	400.63	NaN	NaN	NaN	-1012.9	831.28	547.32	-1086.4	833.06	160.95	-1058.5	987.26	508.83	-1077	979.83	178.53	-1200	935.74	360.23	-925.22	641.09	541.7	-842.59	590.52	507.5	-904.77	554.95	523.81	-867.79	675.86	523.05	-864.59	488.88	509.13	-858.21	477.18	367.54	-960.43	292.1	488.67	-891.07	206.04	480.85	-958.72	218.8	480.44	-889.5	274.35	495.47	-948.08	125.37	471.93	-926.59	141.14	389.24	-1002.3	114.69	408.02	-986.8	83.918	380.39	-1007.5	81.968	441.37	-856.46	56.671	505.18	-809.3	53.644	404.62	-769.72	74.482	467.7	-1136.9	615.03	202.13	-1068.4	527.93	206.83	-1145.8	527.77	227.62	-1067.2	620.39	182.38	-1094.1	449.79	223.49	-1092.2	454.25	363.51	-1196.6	294.48	232.02	-1143.2	198.28	253.25	-1209	223.87	249.65	-1138	271.95	233.77	-1204.6	104.97	272.67	-1193.2	101.72	353.33	-1265.6	73.054	306.68	-1258.2	46.463	339.09	-1260	46.245	277.3	-1094.6	35.275	248.3	-1074	43.8	358.64	-1012.3	57.209	311.54	-1099.3	1407.6	336.27	-1185.4	1159.4	340.7
108	0.44583	-918.4	1107.7	351.18	-1029.2	1346.4	485.99	-1012	1344.9	193.12	-973.66	1630.1	331.27	-949.66	948.89	448.76	-948.09	931.93	239.67	-1163.6	979.49	401.03	NaN	NaN	NaN	-1006.8	831.27	547.46	-1082.2	832.82	160.99	-1053.1	986.95	508.82	-1072.2	979.22	178.74	-1194.6	935.11	360.83	-919.25	640.77	541.15	-836.92	590.18	506.3	-898.95	554.58	523.06	-861.98	675.52	522.02	-858.69	488.71	508.2	-853.27	476.85	366.53	-949.09	289.25	488.12	-877.29	205.28	480.5	-945.01	216.06	479.97	-877.7	273.72	494.94	-931.41	122.77	471.57	-910.27	139.01	388.95	-985.28	110.33	407.68	-968.79	80.007	380.14	-989.52	77.56	441.1	-837.76	56.997	505.1	-790.58	55.173	404.52	-751.67	77.308	467.58	-1134.3	615.42	202.27	-1066.4	527.8	206.81	-1143.9	528.21	227.67	-1064.6	620.25	182.43	-1092.9	449.76	223.43	-1090.8	454.07	363.44	-1195.7	294.9	231.99	-1142.8	198.43	253.32	-1209	224.1	250.26	-1137.3	272.1	233.78	-1204.4	105.22	272.76	-1192.9	101.86	353.42	-1265.4	73.34	306.77	-1258.1	46.725	339.17	-1259.9	46.543	277.38	-1094.6	35.261	248.31	-1073.9	43.731	358.68	-1012.2	57.064	311.53	-1093.8	1407.2	336.38	-1179.9	1158.9	340.49
